<svg xmlns="http://www.w3.org/2000/svg" viewBox="0 0 64 64" width="64" height="64">
  <!-- Pixel-art fish -->
  <!-- Tail -->
  <rect x="6" y="22" width="6" height="4" fill="#4DD0E1"/>
  <rect x="6" y="26" width="6" height="4" fill="#4DD0E1"/>
  <rect x="6" y="30" width="6" height="4" fill="#4DD0E1"/>
  <rect x="6" y="34" width="6" height="4" fill="#4DD0E1"/>
  <rect x="6" y="38" width="6" height="4" fill="#4DD0E1"/>
  <!-- Body -->
  <rect x="12" y="20" width="6" height="4" fill="#26C6DA"/>
  <rect x="12" y="24" width="6" height="4" fill="#E0F7FA"/>
  <rect x="12" y="28" width="6" height="4" fill="#E0F7FA"/>
  <rect x="12" y="32" width="6" height="4" fill="#E0F7FA"/>
  <rect x="12" y="36" width="6" height="4" fill="#26C6DA"/>
  <rect x="12" y="40" width="6" height="4" fill="#26C6DA"/>
  <rect x="18" y="16" width="6" height="4" fill="#26C6DA"/>
  <rect x="18" y="20" width="6" height="4" fill="#E0F7FA"/>
  <rect x="18" y="24" width="6" height="4" fill="#FFFFFF"/>
  <rect x="18" y="28" width="6" height="4" fill="#FFFFFF"/>
  <rect x="18" y="32" width="6" height="4" fill="#FFFFFF"/>
  <rect x="18" y="36" width="6" height="4" fill="#E0F7FA"/>
  <rect x="18" y="40" width="6" height="4" fill="#26C6DA"/>
  <rect x="18" y="44" width="6" height="4" fill="#26C6DA"/>
  <rect x="24" y="14" width="6" height="4" fill="#26C6DA"/>
  <rect x="24" y="18" width="6" height="4" fill="#E0F7FA"/>
  <rect x="24" y="22" width="6" height="4" fill="#FFFFFF"/>
  <rect x="24" y="26" width="6" height="4" fill="#FFFFFF"/>
  <rect x="24" y="30" width="6" height="4" fill="#FFFFFF"/>
  <rect x="24" y="34" width="6" height="4" fill="#E0F7FA"/>
  <rect x="24" y="38" width="6" height="4" fill="#E0F7FA"/>
  <rect x="24" y="42" width="6" height="4" fill="#26C6DA"/>
  <!-- Stripe -->
  <rect x="12" y="28" width="24" height="4" fill="#006064" opacity="0.25"/>
  <!-- Front body -->
  <rect x="30" y="16" width="6" height="4" fill="#26C6DA"/>
  <rect x="30" y="20" width="6" height="4" fill="#E0F7FA"/>
  <rect x="30" y="24" width="6" height="4" fill="#FFFFFF"/>
  <rect x="30" y="28" width="6" height="4" fill="#FFFFFF"/>
  <rect x="30" y="32" width="6" height="4" fill="#E0F7FA"/>
  <rect x="30" y="36" width="6" height="4" fill="#26C6DA"/>
  <rect x="30" y="40" width="6" height="4" fill="#26C6DA"/>
  <rect x="36" y="18" width="6" height="4" fill="#26C6DA"/>
  <rect x="36" y="22" width="6" height="4" fill="#E0F7FA"/>
  <rect x="36" y="26" width="6" height="4" fill="#FFFFFF"/>
  <rect x="36" y="30" width="6" height="4" fill="#E0F7FA"/>
  <rect x="36" y="34" width="6" height="4" fill="#26C6DA"/>
  <rect x="36" y="38" width="6" height="4" fill="#26C6DA"/>
  <!-- Head -->
  <rect x="42" y="20" width="6" height="4" fill="#26C6DA"/>
  <rect x="42" y="24" width="6" height="4" fill="#E0F7FA"/>
  <rect x="42" y="28" width="6" height="4" fill="#E0F7FA"/>
  <rect x="42" y="32" width="6" height="4" fill="#26C6DA"/>
  <rect x="48" y="24" width="6" height="4" fill="#26C6DA"/>
  <rect x="48" y="28" width="6" height="4" fill="#26C6DA"/>
  <!-- Eye -->
  <rect x="44" y="22" width="4" height="4" fill="#FFFFFF"/>
  <rect x="46" y="22" width="2" height="2" fill="#1A237E"/>
  <!-- Top fin -->
  <rect x="22" y="10" width="4" height="4" fill="#4DD0E1"/>
  <rect x="26" y="10" width="4" height="4" fill="#4DD0E1"/>
  <rect x="24" y="14" width="4" height="4" fill="#4DD0E1"/>
</svg>
